<svg xmlns="http://www.w3.org/2000/svg" xmlns:xlink="http://www.w3.org/1999/xlink" version="1.1" id="Layer_1" x="0px" y="0px" style="enable-background:new 0 0 595.28 841.89;" xml:space="preserve" viewBox="189.39 397.68 215.5 46.9">
<style type="text/css">
	.st0{fill:#FF5403;}
	.st1{fill:#FFFFFF;}
</style>
<g>
	<path class="st0" d="M384.03,408.13l-20.86-10.45v26.04c0,11.5,9.36,20.86,20.86,20.86c11.5,0,20.86-9.36,20.86-20.86v-26.04   L384.03,408.13z M401.04,423.71c0,9.38-7.63,17.01-17.01,17.01c-9.38,0-17.01-7.63-17.01-17.01V403.9l12.72,6.38l-7.12,3.57v4.3   l28.42-14.25V423.71z"/>
	<g>
		<path class="st1" d="M213.42,433.02c0.17,0.52,0.33,0.91,0.45,1.16s0.31,0.52,0.56,0.81s0.56,0.54,0.93,0.73    c0.37,0.19,0.85,0.38,1.45,0.56v0.52h-11.96v-0.52c1.14-0.4,1.92-0.75,2.34-1.04s0.64-0.69,0.64-1.19c0-0.44-0.19-1.17-0.56-2.2    l-1.49-4.22h-9.01l-0.29,0.75c-0.95,2.64-1.42,4.31-1.4,5.05c0,0.67,0.19,1.23,0.58,1.66c0.39,0.42,1.07,0.83,2.02,1.21v0.52    h-8.29v-0.52c1.38-0.85,2.38-1.77,3.04-2.77c0.66-1,1.4-2.64,2.21-4.89l5.72-15.92l-1.28-2.52c2-0.79,3.6-1.62,4.83-2.48    l9.53,25.34L213.42,433.02z M204.91,425.18l-3.64-10.23l-3.6,10.23H204.91z"/>
		<path class="st1" d="M218.71,434.6c-1.49-1.75-2.25-4.1-2.25-7.07c0-3.06,0.79-5.53,2.4-7.38c1.61-1.85,3.51-2.77,5.7-2.77    c2.11,0,3.97,0.71,5.58,2.14v-7.14c0-1.66-0.89-2.81-2.65-3.47v-0.39c2.58-0.15,5.06-0.6,7.46-1.35v25.75    c0,0.81,0.16,1.37,0.47,1.7c0.31,0.33,1.03,0.69,2.13,1.1v0.35l-7.31,1.17v-3.58h-0.08c-0.6,1.02-1.45,1.87-2.56,2.54    s-2.29,1.02-3.55,1.02C221.98,437.22,220.2,436.35,218.71,434.6z M230.16,431.98v-7.01c-0.5-1.56-1.18-2.93-2.05-4.08    c-0.87-1.16-1.88-1.73-3.02-1.73c-1.24,0-2.15,0.69-2.75,2.1c-0.6,1.41-0.89,3.08-0.89,5.05c0,2.39,0.43,4.39,1.26,5.99    c0.83,1.6,1.92,2.41,3.26,2.41C227.45,434.69,228.84,433.79,230.16,431.98z"/>
		<path class="st1" d="M258.17,417.92v0.52c-0.72,0.4-1.28,0.81-1.71,1.23c-0.43,0.42-0.72,0.77-0.87,1.04    c-0.15,0.27-0.37,0.71-0.62,1.35l-6.47,14.87h-1.32l-6.9-15.93c-0.25-0.63-0.58-1.14-0.99-1.52c-0.41-0.38-1.05-0.73-1.9-1.04    v-0.52h10.17v0.52c-0.81,0.25-1.4,0.52-1.74,0.81s-0.52,0.63-0.52,1.06c0,0.37,0.14,0.91,0.43,1.62c0.02,0.02,1.28,2.99,3.78,8.9    c2.27-5.39,3.49-8.36,3.66-8.92c0.17-0.6,0.27-1.04,0.29-1.31c0-0.48-0.14-0.89-0.43-1.19c-0.29-0.31-0.78-0.66-1.47-1.02v-0.52    L258.17,417.92z"/>
		<path class="st1" d="M267.32,437.22c-2.85,0-5.15-0.89-6.94-2.66s-2.67-4.12-2.67-7.03c0-2.89,0.89-5.3,2.65-7.24    c1.76-1.94,4.15-2.91,7.15-2.91c2.85,0,5.15,0.89,6.92,2.68c1.76,1.79,2.65,4.14,2.65,7.07c0,2.93-0.87,5.33-2.64,7.24    c-1.76,1.91-4.13,2.85-7.11,2.85H267.32z M271.02,434.15c0.78-1.02,1.16-2.54,1.16-4.54c0-1.44-0.17-2.95-0.52-4.49    c-0.35-1.54-0.97-2.96-1.86-4.26c-0.89-1.29-1.94-1.95-3.16-1.95c-1.14,0-2.09,0.52-2.87,1.56c-0.77,1.04-1.16,2.56-1.16,4.56    c0,1.02,0.12,2.12,0.33,3.29c0.21,1.17,0.54,2.33,0.97,3.47c0.43,1.14,1.01,2.06,1.76,2.79c0.76,0.73,1.59,1.1,2.52,1.1    C269.3,435.69,270.25,435.17,271.02,434.15z"/>
		<path class="st1" d="M288.02,437.23c-2.5,0-4.61-0.91-6.34-2.72c-1.72-1.81-2.6-4.22-2.6-7.22c0-2.96,0.85-5.35,2.56-7.16    s3.76-2.72,6.14-2.72c1.61,0,3.02,0.4,4.24,1.21c1.22,0.81,2.19,1.77,2.91,2.87l-3.51,2.77l-0.35-0.17    c-0.17-1.29-0.58-2.46-1.22-3.52c-0.64-1.06-1.45-1.6-2.46-1.6c-1.03,0-1.94,0.6-2.73,1.79c-0.79,1.19-1.2,2.79-1.2,4.78    c0,2.48,0.62,4.47,1.86,5.97s2.81,2.25,4.73,2.25c2.09,0,3.66-0.87,4.71-2.6l0.56,0.37c-0.48,1.56-1.34,2.89-2.56,4.01    c-1.22,1.12-2.81,1.68-4.77,1.68L288.02,437.23z"/>
		<path class="st1" d="M312.16,437.25c-1.18,0-2.02-0.39-2.5-1.16c-0.48-0.77-0.7-1.68-0.64-2.73h-0.04c-0.6,1-1.49,1.89-2.65,2.66    c-1.16,0.77-2.52,1.16-4.05,1.16c-1.59,0-2.83-0.42-3.74-1.25c-0.91-0.83-1.36-1.91-1.36-3.23c0-1.87,1.01-3.49,3.02-4.85    c2.02-1.37,4.98-2.56,8.9-3.58l0.08-2.48c0.02-0.71-0.16-1.33-0.54-1.83c-0.39-0.5-0.99-0.75-1.82-0.75c-1.24,0-2.23,0.5-2.96,1.5    c-0.74,1-1.22,2.21-1.45,3.64l-0.35,0.12l-3.47-2.45c0.72-1.23,1.8-2.31,3.26-3.22c1.45-0.9,3.22-1.37,5.31-1.37    c2.34,0,4.05,0.58,5.1,1.75s1.55,2.6,1.49,4.27l-0.25,10.21c0,0.37,0.1,0.67,0.27,0.9c0.17,0.23,0.39,0.35,0.64,0.35    c0.58,0,1.1-0.56,1.59-1.69l0.56,0.27c-0.33,1-0.85,1.87-1.57,2.62c-0.72,0.75-1.65,1.12-2.79,1.12L312.16,437.25z M304.54,434.13    c1.65,0,3.08-0.79,4.32-2.37l0.19-6.2c-4.63,1.48-6.94,3.5-6.94,6.08c0,0.79,0.21,1.41,0.66,1.85c0.45,0.44,1.03,0.65,1.76,0.65    V434.13z"/>
		<path class="st1" d="M320.2,435.81c-0.97-0.91-1.45-2.23-1.45-3.97v-12.3h-1.94v-1.14c3.1-2.02,5.14-3.91,6.1-5.66h0.56v5.12h5.15    l-0.31,1.7h-4.77l-0.12,10.96c-0.02,2.56,0.95,3.83,2.91,3.83c0.91,0,1.74-0.35,2.5-1.02l0.37,0.42    c-1.43,2.29-3.26,3.43-5.45,3.43C322.35,437.18,321.17,436.71,320.2,435.81z"/>
	</g>
</g>
<g>
	<path class="st1" d="M333.36,417.86v-3.94h-1.44v-1.18h4.08v1.18h-1.44v3.94H333.36z M336.84,417.86v-5.12h1.14l1.32,1.94   l1.33-1.94h1.14v5.12h-1.16v-3.11l-1.29,1.89l-1.3-1.9v3.12H336.84z"/>
</g>
</svg>