<svg xmlns="http://www.w3.org/2000/svg" xmlns:xlink="http://www.w3.org/1999/xlink" version="1.1" id="Layer_1" x="0px" y="0px" style="enable-background:new 0 0 595.28 841.89;" xml:space="preserve" viewBox="262.32 386.15 69.67 69.76">
<style type="text/css">
	.st0{fill:#01023B;}
</style>
<path class="st0" d="M331.89,434.21c0-0.03,0-0.05,0-0.08c0-0.06,0-0.09,0-0.11l0-0.03l-13.15-43.33c-0.01-0.03-0.05-0.1-0.09-0.16  c-0.07-0.09-0.12-0.14-0.17-0.18l-0.05-0.04c-0.04-0.02-0.09-0.05-0.15-0.08l-0.1-0.02c-0.09-0.04-0.19-0.05-0.29-0.06  c-0.06,0-0.11,0-0.15,0l-12.46,2.31l-0.06-0.21c-0.82-2.7-2.91-4.82-5.6-5.67c-2.69-0.85-5.62-0.31-7.84,1.44  c-2.22,1.75-3.42,4.47-3.23,7.29l0.01,0.21l-0.21,0.04l-12.41,2.3c-0.05,0.01-0.12,0.05-0.18,0.1c-0.09,0.08-0.15,0.13-0.2,0.19  c-0.03,0.05-0.06,0.11-0.09,0.18l-0.01,0.06l-13.14,43.26v0.03c0,0.03,0,0.05,0,0.08c0,0.06,0,0.09,0,0.12l0,0.06  c0,4.99,2.68,9.64,7,12.13c4.32,2.49,9.69,2.5,14.01,0c4.32-2.49,7-7.14,7-12.13l0-0.06c0-0.03,0-0.05,0-0.08c0-0.06,0-0.09,0-0.11  l0-0.03l-12.99-42.29l11.54-2.14l0.06,0.2c0.84,2.67,2.93,4.76,5.6,5.59c2.67,0.83,5.58,0.3,7.78-1.42  c2.21-1.72,3.43-4.42,3.27-7.21l-0.01-0.21l0.21-0.04l10.89-2.02l-0.11,0.38l-12.59,41.56c0,0.03,0,0.05,0,0.08  c0,0.06,0,0.09,0,0.12l0,0.06c0,4.99,2.68,9.64,7,12.13c4.32,2.49,9.69,2.49,14.01,0c4.19-2.42,6.84-6.86,7-11.68l-0.14,0.14  L331.89,434.21z M288.48,443.07c-0.28,3.06-1.68,5.89-3.96,7.96c-2.27,2.07-5.22,3.21-8.29,3.21c-3.07,0-6.02-1.14-8.29-3.21  s-3.68-4.9-3.96-7.96l-0.02-0.26h24.54L288.48,443.07z M276.23,436.15c1.34,0,2.64,0.47,3.67,1.31c1.03,0.85,1.75,2.03,2.01,3.34  l0.06,0.29h-11.48l0.06-0.29c0.26-1.31,0.98-2.49,2.01-3.34C273.59,436.62,274.9,436.15,276.23,436.15z M273.41,431.62l0.02-0.24  c0.06-0.67,0.34-1.28,0.82-1.76c0.53-0.53,1.26-0.83,2-0.83c0,0,0,0,0,0c0.75,0,1.47,0.3,2,0.83c0.53,0.54,0.83,1.25,0.83,2  c0,0.75-0.3,1.46-0.84,2c-0.53,0.53-1.24,0.82-1.99,0.82c0,0-0.01,0-0.01,0c-0.75,0-1.46-0.3-2-0.83  C273.7,433.08,273.41,432.37,273.41,431.62z M288.23,441.09h-4.53l-0.03-0.21c-0.35-2.47-1.91-4.59-4.15-5.68l-0.3-0.15l0.24-0.24  c0.86-0.86,1.33-2,1.33-3.21c0-1.21-0.47-2.35-1.33-3.21c-0.86-0.86-2-1.33-3.21-1.33c-1.21,0-2.35,0.47-3.21,1.33  c-0.86,0.86-1.33,2-1.33,3.21c0,1.21,0.47,2.35,1.33,3.21l0.24,0.24l-0.31,0.15c-2.25,1.08-3.81,3.21-4.17,5.68l-0.03,0.21h-4.53  l12-39.49L288.23,441.09z M303.32,397.51c-0.9,2.11-2.79,3.61-5.04,4.02v0c-0.4,0.07-0.8,0.11-1.2,0.11c-1.38,0-2.76-0.42-3.9-1.21  c-1.5-1.04-2.5-2.59-2.82-4.39s0.07-3.6,1.1-5.1c1.02-1.49,2.61-2.52,4.39-2.84c0.4-0.07,0.8-0.1,1.21-0.1  c2.3,0,4.42,1.15,5.69,3.07C304.01,392.99,304.22,395.4,303.32,397.51z M317.88,393.93l12,39.49h-4.53l-0.03-0.21  c-0.35-2.47-1.9-4.59-4.15-5.68l-0.3-0.15l0.24-0.24c0.86-0.86,1.33-2,1.33-3.21c0-1.21-0.47-2.35-1.33-3.21  c-0.86-0.86-2-1.33-3.21-1.33c-1.19,0-2.36,0.48-3.21,1.33c-0.86,0.86-1.33,2-1.33,3.21c0,1.21,0.47,2.35,1.33,3.21l0.24,0.24  l-0.31,0.15c-2.25,1.08-3.81,3.21-4.17,5.68l-0.03,0.21h-4.53L317.88,393.93z M317.88,428.48c1.34,0,2.64,0.47,3.67,1.31  c1.03,0.85,1.75,2.03,2.01,3.34l0.06,0.29h-11.48l0.06-0.29c0.26-1.31,0.98-2.49,2.01-3.34  C315.24,428.95,316.55,428.48,317.88,428.48z M315.05,423.94L315.05,423.94c0-0.75,0.3-1.47,0.83-2c0.53-0.53,1.24-0.83,2-0.83  s1.46,0.29,2,0.83c0.53,0.53,0.83,1.25,0.83,2c0,0.74-0.3,1.47-0.83,2c-0.53,0.53-1.26,0.83-2,0.83c-0.75,0-1.46-0.3-2-0.83  C315.35,425.41,315.06,424.7,315.05,423.94z M330.13,435.39c-0.28,3.06-1.69,5.89-3.96,7.96c-2.27,2.07-5.21,3.22-8.29,3.22  c-3.08,0-6.02-1.14-8.29-3.22c-2.27-2.07-3.68-4.9-3.96-7.96l-0.02-0.26h24.54L330.13,435.39z"/>
</svg>