<svg xmlns="http://www.w3.org/2000/svg" xmlns:xlink="http://www.w3.org/1999/xlink" version="1.1" id="Layer_1" x="0px" y="0px" style="enable-background:new 0 0 595.28 841.89;" xml:space="preserve" viewBox="263.91 390.66 66.85 61.53">
<style type="text/css">
	.st0{fill:#FF3F00;}
</style>
<g>
	<path class="st0" d="M264.46,390.66h44.37c0.3,0,0.55,0.25,0.55,0.55v28.46c0,0.15-0.06,0.29-0.16,0.39l-10.72,10.72l-2.48,7.72   l7.77-2.43l4.66-4.66c0.21-0.21,0.56-0.21,0.77,0c0.11,0.11,0.16,0.25,0.16,0.39v19.84c0,0.3-0.25,0.55-0.55,0.55h-44.37   c-0.3,0-0.55-0.25-0.55-0.55v-60.42C263.91,390.9,264.16,390.66,264.46,390.66L264.46,390.66z M308.28,391.75h-43.27v59.33h43.27   v-17.97l-3.81,3.81c-0.06,0.06-0.14,0.12-0.23,0.14l-0.16-0.52l0.16,0.52l-8.87,2.78c-0.11,0.04-0.24,0.05-0.36,0.01   c-0.29-0.09-0.45-0.4-0.35-0.69l0,0l2.83-8.81c0.02-0.1,0.07-0.19,0.15-0.26l10.66-10.66L308.28,391.75L308.28,391.75z"/>
	<path class="st0" d="M320.28,408.22l6.06,6.06c0.21,0.21,0.21,0.56,0,0.77l-21.87,21.87c-0.21,0.21-0.56,0.21-0.77,0l-6.06-6.06   c-0.21-0.21-0.21-0.56,0-0.77l21.87-21.87C319.71,408.01,320.06,408.01,320.28,408.22L320.28,408.22z M325.17,414.67l-5.29-5.29   l-21.1,21.1l5.29,5.29L325.17,414.67z"/>
	<path class="st0" d="M296.01,438.5l7.04-2.2l-4.79-4.79L296.01,438.5z M304.07,436.55l0.16,0.52l-8.87,2.78   c-0.11,0.04-0.24,0.05-0.36,0.01c-0.29-0.09-0.45-0.4-0.35-0.69l0,0l2.83-8.81c0.02-0.1,0.07-0.19,0.15-0.26   c0.21-0.21,0.56-0.21,0.77,0l6.06,6.06c0.06,0.06,0.12,0.14,0.14,0.23c0.09,0.29-0.07,0.6-0.36,0.69L304.07,436.55L304.07,436.55z"/>
	<path class="st0" d="M322.33,410.28l1.94,1.94c0.21,0.21,0.21,0.56,0,0.77l-21.87,21.87c-0.21,0.21-0.56,0.21-0.77,0l-1.95-1.95   c-0.21-0.21-0.21-0.56,0-0.77l21.87-21.87C321.77,410.06,322.11,410.06,322.33,410.28L322.33,410.28z M323.11,412.61l-1.17-1.17   l-21.1,21.1l1.17,1.17L323.11,412.61z"/>
	<path class="st0" d="M320.66,408.61l5.29,5.29l2.98-2.98c0.48-0.48,0.73-1.12,0.73-1.76s-0.24-1.28-0.73-1.76l-1.76-1.76   c-0.48-0.48-1.12-0.73-1.76-0.73s-1.28,0.24-1.76,0.73L320.66,408.61L320.66,408.61z M325.56,415.06L319.5,409   c-0.21-0.21-0.21-0.56,0-0.77l3.37-3.37c0.7-0.7,1.62-1.05,2.54-1.05s1.84,0.35,2.54,1.05l1.76,1.76c0.7,0.7,1.05,1.62,1.05,2.54   s-0.35,1.84-1.05,2.54l-3.37,3.37C326.12,415.27,325.77,415.27,325.56,415.06L325.56,415.06z"/>
	<path class="st0" d="M321.35,423.44c-0.21,0.21-0.21,0.56,0,0.77s0.56,0.21,0.77,0l7.77-7.77c0.21-0.21,0.21-0.56,0-0.77   l-2.47-2.47c-0.21-0.21-0.56-0.21-0.77,0s-0.21,0.56,0,0.77l2.08,2.08L321.35,423.44L321.35,423.44z"/>
	<path class="st0" d="M271.03,398.79c-0.3,0-0.55,0.25-0.55,0.55s0.25,0.55,0.55,0.55h15.42c0.3,0,0.55-0.25,0.55-0.55   s-0.25-0.55-0.55-0.55H271.03z"/>
	<path class="st0" d="M271.03,403.01c-0.3,0-0.55,0.25-0.55,0.55s0.25,0.55,0.55,0.55h15.42c0.3,0,0.55-0.25,0.55-0.55   s-0.25-0.55-0.55-0.55H271.03z"/>
	<path class="st0" d="M271.03,407.24c-0.3,0-0.55,0.25-0.55,0.55s0.25,0.55,0.55,0.55h15.42c0.3,0,0.55-0.25,0.55-0.55   s-0.25-0.55-0.55-0.55H271.03z"/>
	<path class="st0" d="M271.03,411.46c-0.3,0-0.55,0.25-0.55,0.55s0.25,0.55,0.55,0.55h27.35c0.3,0,0.55-0.25,0.55-0.55   s-0.25-0.55-0.55-0.55H271.03z"/>
	<path class="st0" d="M271.03,415.69c-0.3,0-0.55,0.25-0.55,0.55s0.25,0.55,0.55,0.55h27.35c0.3,0,0.55-0.25,0.55-0.55   s-0.25-0.55-0.55-0.55H271.03z"/>
	<path class="st0" d="M271.03,419.91c-0.3,0-0.55,0.25-0.55,0.55s0.25,0.55,0.55,0.55h27.35c0.3,0,0.55-0.25,0.55-0.55   s-0.25-0.55-0.55-0.55H271.03z"/>
	<path class="st0" d="M283.81,424.14c-0.3,0-0.55,0.25-0.55,0.55s0.25,0.55,0.55,0.55h14.57c0.3,0,0.55-0.25,0.55-0.55   s-0.25-0.55-0.55-0.55H283.81z"/>
	<path class="st0" d="M277.26,429.99l2.01,2.88l3.51-0.63l0,0c0.3-0.05,0.58,0.15,0.64,0.44c0.01,0.07,0.01,0.15,0,0.22l-0.62,3.49   l2.92,2.04l0,0c0.25,0.17,0.31,0.51,0.14,0.76c-0.05,0.07-0.11,0.12-0.18,0.16l-2.88,2.01l0.63,3.51l0,0   c0.05,0.3-0.15,0.58-0.44,0.64c-0.07,0.01-0.15,0.01-0.22,0l-3.49-0.62l-2.04,2.92l0,0c-0.17,0.25-0.51,0.31-0.76,0.14   c-0.07-0.05-0.12-0.11-0.16-0.18l-2.01-2.88l-3.51,0.63l0,0c-0.3,0.05-0.58-0.15-0.64-0.44c-0.01-0.07-0.01-0.15,0-0.22l0.62-3.49   l-2.92-2.04l0,0c-0.25-0.17-0.31-0.51-0.14-0.76c0.05-0.07,0.11-0.12,0.18-0.16l2.88-2.01l-0.63-3.51l0,0   c-0.05-0.3,0.15-0.58,0.44-0.64c0.07-0.01,0.15-0.01,0.22,0l3.49,0.62l2.04-2.92l0,0c0.17-0.25,0.51-0.31,0.76-0.14   C277.17,429.86,277.22,429.93,277.26,429.99L277.26,429.99z M278.58,433.79l-1.79-2.57l-1.76,2.53c-0.11,0.2-0.34,0.31-0.57,0.27   l0,0l-3.08-0.55l0.54,3.06c0.05,0.21-0.03,0.44-0.22,0.57l0,0l-2.57,1.79l2.53,1.76c0.2,0.11,0.31,0.34,0.27,0.57l0,0l-0.55,3.08   l3.06-0.54c0.21-0.05,0.44,0.03,0.57,0.22l0,0l1.79,2.57l1.76-2.53c0.11-0.2,0.34-0.31,0.57-0.27l0,0l3.08,0.55l-0.54-3.06   c-0.05-0.21,0.03-0.44,0.22-0.57l0,0l2.57-1.79l-2.53-1.76c-0.2-0.11-0.31-0.34-0.27-0.57l0,0l0.55-3.08l-3.06,0.54   C278.93,434.06,278.71,433.97,278.58,433.79L278.58,433.79z"/>
</g>
</svg>