<svg xmlns="http://www.w3.org/2000/svg" xmlns:xlink="http://www.w3.org/1999/xlink" version="1.1" id="Layer_1" x="0px" y="0px" style="enable-background:new 0 0 595.28 841.89;" xml:space="preserve" viewBox="267.33 391.41 60.01 60.01">
<style type="text/css">
	.st0{fill:#FF3F00;}
</style>
<path class="st0" d="M315.15,391.41c-5.69,0-10.31,4.63-10.31,10.31c0,4.56,2.97,8.46,7.09,9.82c-3.53,0.96-6.43,3.46-7.91,6.74  c-1.8-1.54-4.13-2.49-6.68-2.49c-5.02,0-9.22,3.63-10.14,8.38c-1.3-1.05-2.82-1.84-4.48-2.29c4.14-1.34,7.12-5.27,7.12-9.85  c0-5.69-4.63-10.32-10.31-10.32c-5.69,0-10.32,4.63-10.32,10.32c0,4.57,2.99,8.47,7.12,9.82c-5.19,1.4-9,6.12-9,11.75v17.82h60.01  v-28.13c0-5.63-3.81-10.35-9-11.75c4.13-1.35,7.12-5.24,7.12-9.82C325.46,396.04,320.84,391.41,315.15,391.41L315.15,391.41z   M315.15,393.29c4.67,0,8.44,3.77,8.44,8.44s-3.77,8.44-8.44,8.44s-8.44-3.77-8.44-8.44C306.71,397.05,310.48,393.29,315.15,393.29z   M279.52,403.6c4.67,0,8.44,3.77,8.44,8.44s-3.77,8.44-8.44,8.44s-8.44-3.77-8.44-8.44S274.84,403.6,279.52,403.6L279.52,403.6z   M315.15,412.98c5.73,0,10.32,4.58,10.32,10.31v26.26h-15.94v-1.88c0-5.63-3.81-10.35-9-11.75c4.13-1.35,7.12-5.24,7.12-9.82  c0-2.38-0.83-4.55-2.2-6.3C306.87,415.81,310.64,412.98,315.15,412.98L315.15,412.98z M297.33,417.67c4.67,0,8.44,3.77,8.44,8.44  s-3.77,8.44-8.44,8.44s-8.44-3.77-8.44-8.44S292.66,417.67,297.33,417.67z M279.52,423.29c2.99,0,5.65,1.24,7.53,3.25  c0.19,4.38,3.09,8.07,7.09,9.38c-5.19,1.4-9,6.12-9,11.75v1.88H269.2v-15.94C269.2,427.88,273.79,423.29,279.52,423.29  L279.52,423.29z M297.33,437.36c5.73,0,10.32,4.58,10.32,10.32v1.88h-20.63v-1.88C287.02,441.94,291.6,437.36,297.33,437.36  L297.33,437.36z"/>
</svg>