<svg xmlns="http://www.w3.org/2000/svg" xmlns:xlink="http://www.w3.org/1999/xlink" version="1.1" id="Layer_1" x="0px" y="0px" style="enable-background:new 0 0 595.28 841.89;" xml:space="preserve" viewBox="270.54 395.05 53.58 53.67">
<style type="text/css">
	.st0{fill:#FF3F00;}
</style>
<g>
	<g>
		<path class="st0" d="M284.68,428.21h-0.2c-0.99-0.2-1.98-1.19-1.78-2.17c0.2-0.99,0.99-1.78,2.17-1.78h0.2    c0.99,0.2,1.78,1.19,1.78,2.17C286.46,427.42,285.67,428.21,284.68,428.21z"/>
		<path class="st0" d="M293.18,428.21h-0.2c-0.99-0.2-1.98-1.19-1.78-2.17c0.2-0.99,0.99-1.78,2.17-1.78h0.2    c0.99,0.2,1.78,1.19,1.78,2.17C294.96,427.42,294.17,428.21,293.18,428.21z"/>
		<path class="st0" d="M301.49,419.71h-0.2c-0.99-0.2-1.98-1.19-1.78-2.17s1.19-1.78,2.17-1.78h0.2c0.99,0.2,1.78,1.19,1.78,2.17    C303.26,419.11,302.47,419.71,301.49,419.71z"/>
		<path class="st0" d="M293.18,436.51h-0.2c-0.99-0.2-1.98-1.19-1.78-2.17s0.99-1.78,2.17-1.78h0.2c0.99,0.2,1.78,1.19,1.78,2.17    C294.96,435.72,294.17,436.51,293.18,436.51z"/>
		<path class="st0" d="M293.18,419.71h-0.2c-0.99-0.2-1.98-1.19-1.78-2.17s0.99-1.78,2.17-1.78h0.2c0.99,0.2,1.78,1.19,1.78,2.17    C294.96,419.11,294.17,419.71,293.18,419.71z"/>
		<path class="st0" d="M301.49,428.21h-0.2c-0.99-0.2-1.98-1.19-1.78-2.17c0.2-0.99,1.19-1.78,2.17-1.78h0.2    c0.99,0.2,1.78,1.19,1.78,2.17C303.26,427.42,302.47,428.21,301.49,428.21z"/>
		<path class="st0" d="M301.49,411.4h-0.2c-0.99-0.2-1.98-1.19-1.78-2.17c0.2-0.99,1.19-1.78,2.17-1.78h0.2    c0.99,0.2,1.78,1.19,1.78,2.17C303.26,410.61,302.47,411.4,301.49,411.4z"/>
		<path class="st0" d="M309.79,419.71h-0.2c-0.99-0.2-1.98-1.19-1.78-2.17s0.99-1.78,2.17-1.78h0.2c0.99,0.2,1.78,1.19,1.78,2.17    C311.77,419.11,310.78,419.71,309.79,419.71z"/>
	</g>
	<path class="st0" d="M317.53,421.84l3.72-3.72c3.84-3.84,3.83-10.01-0.01-14.04l-6.12-6.11c-3.84-3.84-10.01-3.84-14.04,0.01   l-3.75,3.75l-3.76-3.76c-1.83-1.83-4.41-2.92-6.91-2.92c-2.67,0-5.26,1.06-7.11,2.92l-6.13,6.13c-3.84,3.84-3.83,10.01,0.01,14.04   l3.75,3.75l-3.76,3.76c-3.84,3.84-3.83,10.01,0.01,14.04l6.12,6.12c1.93,1.93,4.26,2.91,6.91,2.91c2.75,0,5.19-1.02,6.89-2.89   l3.79-3.79l3.76,3.76c1.83,1.83,4.41,2.91,6.91,2.91s5.09-1.09,6.91-2.91l6.13-6.13c3.84-3.84,3.83-10.01-0.01-14.04L317.53,421.84   z M274.97,416.54c-1.4-1.4-2.17-3.3-2.17-5.34s0.77-3.94,2.18-5.34l6.12-6.32c1.4-1.4,3.4-2.24,5.35-2.24s3.95,0.83,5.34,2.23   l3.76,3.76l-17.04,17.04L274.97,416.54z M296.55,439.68l-4.55,4.55c-1.45,1.45-3.4,2.17-5.35,2.17s-3.9-0.72-5.34-2.17l-6.32-6.12   c-1.41-1.41-2.19-3.31-2.19-5.35s0.77-3.94,2.18-5.35l23.13-23.13l4.54-4.73c1.42-1.42,3.31-2.19,5.36-2.19   c2.04,0,3.94,0.77,5.34,2.18l6.32,6.12c1.41,1.41,2.19,3.31,2.19,5.35s-0.77,3.94-2.18,5.34l-4.55,4.55L296.55,439.68z    M319.7,438.08l-0.02,0.02l-6.13,6.13c-1.45,1.45-3.4,2.17-5.34,2.17s-3.9-0.72-5.34-2.17l-3.76-3.76l17.04-17.04l3.56,3.8   C322.57,430.33,322.57,434.99,319.7,438.08z"/>
</g>
</svg>