<svg xmlns="http://www.w3.org/2000/svg" xmlns:xlink="http://www.w3.org/1999/xlink" version="1.1" id="Layer_1" x="0px" y="0px" style="enable-background:new 0 0 595.28 841.89;" xml:space="preserve" viewBox="263.26 387.51 61.17 67.24">
<style type="text/css">
	.st0{fill:#01023B;}
</style>
<g>
	<path class="st0" d="M324.14,387.8c-0.18-0.18-0.42-0.29-0.69-0.29h-42.68c-0.41,0-0.75,0.25-0.9,0.6   c-0.05,0.12-0.08,0.24-0.08,0.38v4.99h-9.22c-4.03,0-7.31,3.28-7.31,7.31v46.65c0,4.03,3.28,7.31,7.31,7.31h26.79   c4.03,0,7.31-3.28,7.31-7.31V425.1H315c1.62,0,3.15-0.41,4.49-1.14c2.94-1.6,4.94-4.71,4.94-8.29V388.5   C324.43,388.23,324.32,387.98,324.14,387.8L324.14,387.8z M265.21,400.8c0-2.96,2.41-5.36,5.36-5.36h9.22v6.8h-14.58L265.21,400.8z    M302.73,447.45c0,2.96-2.41,5.36-5.36,5.36h-26.79c-2.96,0-5.36-2.41-5.36-5.36v-3.78h37.52L302.73,447.45z M302.73,441.72h-37.52   v-37.53h14.58v19.93c0,0.27,0.11,0.51,0.29,0.69c0.18,0.18,0.42,0.29,0.69,0.29h21.96L302.73,441.72z M322.47,415.68   c0,2.83-1.58,5.3-3.91,6.57c-1.06,0.58-2.27,0.9-3.56,0.9h-33.26V398.5h40.73L322.47,415.68z M322.47,396.55h-40.73v-7.08h40.73   V396.55z"/>
	<path class="st0" d="M286.64,393.99h0.49c0.54,0,0.97-0.44,0.97-0.97c0-0.54-0.44-0.98-0.97-0.98h-0.49   c-0.54,0-0.98,0.44-0.98,0.98C285.66,393.55,286.1,393.99,286.64,393.99z"/>
	<path class="st0" d="M292.91,393.99h0.49c0.54,0,0.97-0.44,0.97-0.97c0-0.54-0.44-0.98-0.97-0.98h-0.49   c-0.54,0-0.98,0.44-0.98,0.98C291.93,393.55,292.37,393.99,292.91,393.99z"/>
	<path class="st0" d="M304.71,418.87h11.38c0.54,0,0.98-0.44,0.98-0.98v-14.15c0-0.54-0.44-0.98-0.98-0.98h-11.38   c-0.54,0-0.97,0.44-0.97,0.98v14.15C303.73,418.44,304.17,418.87,304.71,418.87z M305.68,404.73h9.43v12.2h-9.43V404.73z"/>
	<path class="st0" d="M288.13,407.03h8.73c0.54,0,0.98-0.44,0.98-0.97c0-0.54-0.44-0.98-0.98-0.98h-8.73   c-0.54,0-0.97,0.44-0.97,0.98C287.16,406.6,287.59,407.03,288.13,407.03z"/>
	<path class="st0" d="M288.13,411.8h8.73c0.54,0,0.98-0.44,0.98-0.97c0-0.54-0.44-0.98-0.98-0.98h-8.73c-0.54,0-0.97,0.44-0.97,0.98   C287.16,411.36,287.59,411.8,288.13,411.8z"/>
	<path class="st0" d="M288.13,416.57h8.73c0.54,0,0.98-0.44,0.98-0.98c0-0.54-0.44-0.97-0.98-0.97h-8.73   c-0.54,0-0.97,0.44-0.97,0.97C287.16,416.13,287.59,416.57,288.13,416.57z"/>
	<path class="st0" d="M283.01,449.21h0.96c0.54,0,0.98-0.44,0.98-0.98c0-0.54-0.44-0.98-0.98-0.98h-0.96   c-0.54,0-0.98,0.44-0.98,0.98C282.04,448.77,282.47,449.21,283.01,449.21z"/>
</g>
</svg>