<svg xmlns="http://www.w3.org/2000/svg" xmlns:xlink="http://www.w3.org/1999/xlink" version="1.1" id="Layer_1" x="0px" y="0px" style="enable-background:new 0 0 595.28 841.89;" xml:space="preserve" viewBox="264.18 392.71 66.3 57.4">
<style type="text/css">
	.st0{fill:#FF3F00;}
</style>
<g>
	<path class="st0" d="M298.04,399.54l24.41,20.39l0,0c0.25,0.2,0.37,0.5,0.37,0.79v28.35c0,0.57-0.46,1.04-1.04,1.04h-18.54   c-0.57,0-1.04-0.46-1.04-1.04v-14.01h-9.75v14.01c0,0.57-0.46,1.04-1.04,1.04h-18.54c-0.57,0-1.04-0.46-1.04-1.04v-28.35   c0-0.34,0.16-0.64,0.42-0.83l24.41-20.39l0,0C297.08,399.16,297.67,399.18,298.04,399.54L298.04,399.54z M320.75,421.2   l-23.42-19.56l-23.42,19.56v26.83h16.47v-14.01c0-0.57,0.46-1.04,1.04-1.04h11.83c0.57,0,1.04,0.46,1.04,1.04v14.01h16.47   L320.75,421.2z"/>
	<path class="st0" d="M328.77,422.22c0.43,0.37,1.08,0.33,1.46-0.11c0.37-0.43,0.33-1.08-0.11-1.46   c-3.44-2.97-31.39-27.9-32.76-27.94h-0.06c-1.67,0.05-29.21,24.87-32.76,27.94c-0.43,0.37-0.48,1.03-0.11,1.46   c0.37,0.43,1.03,0.48,1.46,0.11l31.44-27.1L328.77,422.22L328.77,422.22z"/>
	<path class="st0" d="M279.91,400.77h-4.24l0.03,10.27l4.21-3.63V400.77z M274.63,398.7h7.35v9.65l-0.36,0.31l-6.27,5.4l-1.7,1.47   l-0.01-2.25l-0.05-13.55v-1.04L274.63,398.7z"/>
</g>
</svg>