<svg xmlns="http://www.w3.org/2000/svg" xmlns:xlink="http://www.w3.org/1999/xlink" version="1.1" id="Layer_1" x="0px" y="0px" style="enable-background:new 0 0 595.28 841.89;" xml:space="preserve" viewBox="254.95 387.55 77.77 67.13">
<style type="text/css">
	.st0{fill:#01023B;}
</style>
<g>
	<path class="st0" d="M270.33,426.32c1.26,0,2.46-0.5,3.35-1.4c0.89-0.89,1.39-2.1,1.39-3.36c0-1.26-0.5-2.47-1.39-3.35   c-0.89-0.89-2.1-1.39-3.36-1.39c-1.26,0-2.47,0.5-3.36,1.39c-0.89,0.89-1.39,2.1-1.39,3.36c0,1.26,0.5,2.47,1.4,3.36   C267.87,425.82,269.07,426.32,270.33,426.32L270.33,426.32z M270.33,418.56L270.33,418.56c0.8,0,1.56,0.32,2.13,0.89   c0.56,0.57,0.88,1.33,0.88,2.13c0,0.8-0.32,1.56-0.89,2.13c-0.57,0.56-1.33,0.88-2.13,0.88c-0.8,0-1.56-0.32-2.13-0.88   c-0.56-0.56-0.88-1.33-0.88-2.13c-0.01-0.81,0.3-1.59,0.87-2.17c0.57-0.58,1.34-0.9,2.15-0.9L270.33,418.56z"/>
	<path class="st0" d="M287.15,426.32c1.26,0,2.47-0.5,3.36-1.39c0.89-0.89,1.39-2.1,1.39-3.36c0-1.26-0.5-2.47-1.39-3.36   c-0.89-0.89-2.1-1.39-3.36-1.39c-1.26,0-2.47,0.5-3.36,1.39c-0.89,0.89-1.39,2.1-1.39,3.36c0,1.26,0.5,2.46,1.39,3.35   C284.69,425.82,285.89,426.32,287.15,426.32L287.15,426.32z M287.15,418.56L287.15,418.56c0.8,0,1.57,0.32,2.13,0.88   c0.56,0.56,0.88,1.33,0.88,2.13c0,0.8-0.32,1.56-0.88,2.13c-0.56,0.56-1.33,0.88-2.13,0.88c-0.8,0-1.57-0.32-2.13-0.88   c-0.56-0.56-0.88-1.33-0.88-2.13c-0.01-0.81,0.3-1.58,0.87-2.16c0.57-0.58,1.34-0.9,2.15-0.9L287.15,418.56z"/>
	<path class="st0" d="M303.98,426.32c1.26,0,2.47-0.5,3.35-1.4c0.89-0.89,1.39-2.1,1.39-3.36c0-1.26-0.5-2.47-1.39-3.35   c-0.89-0.89-2.1-1.39-3.36-1.39c-1.26,0-2.47,0.5-3.36,1.39c-0.89,0.89-1.39,2.1-1.39,3.36c0,1.26,0.5,2.47,1.4,3.36   C301.51,425.82,302.72,426.32,303.98,426.32L303.98,426.32z M303.98,418.56L303.98,418.56c0.8,0,1.56,0.32,2.13,0.89   c0.56,0.57,0.88,1.33,0.88,2.13c0,0.8-0.32,1.56-0.89,2.13c-0.57,0.56-1.33,0.88-2.13,0.88c-0.8,0-1.56-0.32-2.13-0.88   c-0.56-0.56-0.88-1.33-0.88-2.13c-0.01-0.81,0.3-1.59,0.87-2.17c0.57-0.58,1.34-0.9,2.15-0.9L303.98,418.56z"/>
	<path class="st0" d="M269.21,387.55c-0.48,0-0.87,0.39-0.87,0.87v13.28h-12.52c-0.48,0-0.87,0.39-0.87,0.87v37.6   c0,0.23,0.09,0.45,0.25,0.61c0.16,0.16,0.38,0.25,0.61,0.25h13.41l2.99,12.98h0c0.07,0.31,0.31,0.56,0.62,0.64   c0.31,0.08,0.64-0.02,0.86-0.25l12.15-13.36l32.65,0c0.23,0,0.45-0.09,0.61-0.25c0.16-0.16,0.25-0.38,0.25-0.61v-13.3h12.51   c0.23,0,0.45-0.09,0.61-0.25c0.16-0.16,0.25-0.38,0.25-0.61v-37.59c0-0.23-0.09-0.45-0.25-0.61c-0.16-0.16-0.38-0.25-0.61-0.25   L269.21,387.55z M317.63,439.29h-32.17c-0.24,0-0.48,0.1-0.64,0.29L273.54,452l-2.78-12.04c-0.09-0.4-0.45-0.69-0.87-0.68h-13.21   v-35.84h60.94L317.63,439.29z M331.01,425.15h-11.65v-22.57v0c0-0.23-0.09-0.45-0.25-0.61c-0.16-0.16-0.38-0.25-0.61-0.25h-48.42   v-12.43h60.94L331.01,425.15z"/>
</g>
</svg>