<?xml version="1.0" encoding="utf-8"?>
<!-- Generator: Adobe Illustrator 26.4.0, SVG Export Plug-In . SVG Version: 6.00 Build 0)  -->
<svg version="1.1" id="Layer_1" xmlns="http://www.w3.org/2000/svg" xmlns:xlink="http://www.w3.org/1999/xlink" x="0px" y="0px"
	 style="enable-background:new 0 0 595.28 841.89;" xml:space="preserve" viewBox="254.95 387.55 81.77 67.13">
<style type="text/css">
	.st0{fill:#01023B;}
</style>
<g>
	<path class="st0" d="M295.98,399.58h-27.25c-0.7,0-1.28,0.57-1.28,1.28c0,0.7,0.57,1.28,1.28,1.28h27.25c0.7,0,1.28-0.57,1.28-1.28
		C297.25,400.16,296.68,399.58,295.98,399.58z"/>
	<path class="st0" d="M295.98,407.76h-27.25c-0.7,0-1.28,0.57-1.28,1.28c0,0.7,0.57,1.28,1.28,1.28h27.25c0.7,0,1.28-0.57,1.28-1.28
		C297.25,408.33,296.68,407.76,295.98,407.76z"/>
	<path class="st0" d="M282.35,415.93h-13.63c-0.7,0-1.28,0.57-1.28,1.28c0,0.71,0.57,1.28,1.28,1.28h13.63
		c0.71,0,1.28-0.57,1.28-1.28C283.63,416.51,283.05,415.93,282.35,415.93z"/>
	<path class="st0" d="M321.1,401.54c0-3.33-2.71-6.05-6.05-6.05c-3.34,0-6.05,2.71-6.05,6.05c0,3.34,2.71,6.05,6.05,6.05
		C318.38,407.59,321.1,404.88,321.1,401.54z M311.56,401.54c0-1.92,1.57-3.49,3.49-3.49c1.92,0,3.49,1.57,3.49,3.49
		s-1.57,3.49-3.49,3.49C313.12,405.03,311.56,403.47,311.56,401.54z"/>
	<path class="st0" d="M330.04,387.32h-65.4c-3.71,0-6.73,3.02-6.73,6.73l0,43.6c0,3.71,3.02,6.73,6.73,6.73h20.52v8.34h-2.81
		c-0.71,0-1.28,0.57-1.28,1.28c0,0.71,0.57,1.28,1.28,1.28h29.98c0.7,0,1.28-0.57,1.28-1.28c0-0.7-0.57-1.28-1.28-1.28h-2.81v-8.34
		h20.52c3.71,0,6.73-3.02,6.73-6.73v-43.6C336.76,390.34,333.75,387.32,330.04,387.32z M306.96,452.72h-19.24v-8.34h19.24V452.72z
		 M334.21,437.65c0,2.3-1.87,4.17-4.17,4.17h-65.4c-2.3,0-4.17-1.87-4.17-4.17v-6.9h73.74V437.65z M334.21,428.2h-73.74v-34.15
		c0-2.3,1.87-4.17,4.17-4.17h65.4c2.3,0,4.17,1.87,4.17,4.17V428.2z"/>
	<path class="st0" d="M297.34,438.25c1.08,0,1.96-0.88,1.96-1.96c0-1.08-0.88-1.96-1.96-1.96c-1.08,0-1.96,0.88-1.96,1.96
		C295.38,437.37,296.25,438.25,297.34,438.25z"/>
	<path class="st0" d="M325.11,419.35c-0.63-5.05-4.95-8.87-10.06-8.87c-5.1,0-9.43,3.81-10.06,8.87c-0.05,0.42-0.08,0.84-0.08,1.27
		v1.96h20.27v-1.96C325.18,420.19,325.16,419.76,325.11,419.35L325.11,419.35z M307.44,420.02l0.19-0.92
		c0.71-3.51,3.84-6.06,7.43-6.06c3.59,0,6.71,2.55,7.43,6.06l0.19,0.92H307.44z"/>
</g>
</svg>