<svg xmlns="http://www.w3.org/2000/svg" xmlns:xlink="http://www.w3.org/1999/xlink" version="1.1" id="Layer_1" x="0px" y="0px" style="enable-background:new 0 0 595.28 841.89;" xml:space="preserve" viewBox="260.24 388.03 67.23 66.24">
<style type="text/css">
	.st0{fill:none;}
	.st1{fill:#01023B;}
</style>
<rect x="300.51" y="423.17" class="st0" width="4.86" height="27.6"/>
<rect x="282.32" y="412.38" class="st0" width="4.86" height="38.4"/>
<path class="st0" d="M284.79,391.57c-1.55,0-2.9,1.36-2.9,2.9c0,1.6,1.3,2.9,2.9,2.9c1.55,0,2.9-1.36,2.9-2.9  S286.33,391.57,284.79,391.57z"/>
<rect x="318.63" y="412.38" class="st0" width="4.86" height="38.4"/>
<path class="st0" d="M321.1,397.31c1.54,0,2.9-1.36,2.9-2.9c0-1.6-1.3-2.9-2.9-2.9s-2.9,1.3-2.9,2.9  C318.2,396,319.5,397.31,321.1,397.31z"/>
<path class="st0" d="M266.59,403.24c-1.55,0-2.9,1.36-2.9,2.9c0,1.6,1.3,2.9,2.9,2.9c1.6,0,2.9-1.3,2.9-2.9  C269.5,404.6,268.14,403.24,266.59,403.24z"/>
<circle class="st0" cx="302.91" cy="406.15" r="2.9"/>
<rect x="264.2" y="423.17" class="st0" width="4.86" height="27.6"/>
<path class="st1" d="M272.31,419.95c-0.19-0.21-0.48-0.33-0.79-0.33v0h-9.86c-0.58,0-1.02,0.44-1.02,1.02l0,32.6  c0,0.58,0.44,1.02,1.02,1.02h9.86c0.58,0,1.02-0.44,1.02-1.02l0-32.6C272.56,420.36,272.48,420.13,272.31,419.95z M270.51,452.22  h-7.75v-30.49h7.75V452.22z"/>
<path class="st1" d="M289.71,408.82L289.71,408.82l-9.86,0c-0.58,0-1.02,0.44-1.02,1.02v43.4c0,0.58,0.44,1.02,1.02,1.02h9.86  c0.58,0,1.02-0.44,1.02-1.02l0-43.33C290.73,409.31,290.28,408.82,289.71,408.82z M288.62,452.22h-7.75v-41.29h7.75V452.22z"/>
<path class="st1" d="M308.63,419.96c-0.2-0.21-0.48-0.33-0.79-0.33v0h-9.86c-0.58,0-1.02,0.44-1.02,1.02v32.6  c0,0.58,0.44,1.02,1.02,1.02h9.86c0.58,0,1.02-0.44,1.02-1.02l0-32.6C308.87,420.36,308.79,420.13,308.63,419.96z M306.82,452.22  h-7.75v-30.49h7.75V452.22z"/>
<path class="st1" d="M326.03,408.82L326.03,408.82l-9.86,0c-0.58,0-1.02,0.44-1.02,1.02v43.4c0,0.58,0.44,1.02,1.02,1.02h9.86  c0.58,0,1.02-0.44,1.02-1.02l0-43.33C327.04,409.31,326.59,408.82,326.03,408.82z M324.94,452.22h-7.75v-41.29h7.75V452.22z"/>
<path class="st1" d="M308.87,403.51l7.38-4.73l0.41,0.39c1.22,1.15,2.73,1.76,4.36,1.76c3.56,0,6.45-2.9,6.45-6.45  c0-3.5-2.95-6.45-6.45-6.45s-6.45,2.96-6.45,6.45c0,0.64,0.1,1.27,0.33,2.04l0.16,0.52l-7.38,4.73l-0.41-0.39  c-1.22-1.15-2.73-1.76-4.36-1.76c-1.65,0-3.24,0.64-4.34,1.75l-0.41,0.41l-7.4-4.74l0.16-0.52c0.23-0.77,0.33-1.39,0.33-2.04  c0-3.56-2.9-6.45-6.45-6.45c-3.5,0-6.45,2.96-6.45,6.45c0,0.65,0.1,1.27,0.33,2.04l0.16,0.52l-7.38,4.73l-0.41-0.39  c-1.22-1.15-2.73-1.76-4.36-1.76c-3.56,0-6.45,2.9-6.45,6.45c0,3.5,2.96,6.45,6.45,6.45s6.45-2.96,6.45-6.45  c0-0.65-0.1-1.27-0.33-2.04l-0.16-0.52l7.39-4.73l0.41,0.39c1.22,1.15,2.73,1.76,4.36,1.76c1.65,0,3.24-0.64,4.35-1.75l0.41-0.41  l7.4,4.74l-0.16,0.52c-0.23,0.77-0.33,1.4-0.33,2.04c0,3.56,2.89,6.45,6.45,6.45c3.5,0,6.45-2.96,6.45-6.45  c0-0.64-0.1-1.27-0.33-2.04L308.87,403.51z M321.1,390.06c2.4,0,4.35,1.95,4.35,4.35c0,2.36-1.99,4.35-4.35,4.35  c-2.4,0-4.35-1.95-4.35-4.35S318.7,390.06,321.1,390.06z M266.59,410.49c-2.4,0-4.35-1.95-4.35-4.35c0-2.36,1.99-4.35,4.35-4.35  c2.36,0,4.35,1.99,4.35,4.35C270.94,408.54,268.99,410.49,266.59,410.49z M284.79,398.82c-2.4,0-4.35-1.95-4.35-4.35  c0-2.36,1.99-4.35,4.35-4.35c2.36,0,4.35,1.99,4.35,4.35S287.14,398.82,284.79,398.82z M302.91,410.49c-2.4,0-4.35-1.95-4.35-4.35  c0-2.36,1.99-4.35,4.35-4.35s4.35,1.99,4.35,4.35C307.25,408.54,305.3,410.49,302.91,410.49z"/>
</svg>